<svg width="1728" height="2867" viewBox="0 0 1728 2867" fill="none" xmlns="http://www.w3.org/2000/svg">
<path d="M1222.16 -177L1161.34 830.247L1447.34 -177H1586.75L1172.38 832.636L1847.12 -177H2004.18L2015.54 -171.894L1182.25 837.158L2223.49 -47.6177L2294 7.25391V62.7261L1190.27 843.51L2294 295.805V410.483L1195.9 851.262L2294 581.081V673.892L1198.77 859.881L2294 821.544V908.366L1198.66 868.775L2294 1056.09V1148.99L1195.59 877.352L2294 1319.85V1434.75L1189.77 885.02L2117.16 1543H1946.33L1181.6 891.254L1876 1795L1892 2147.5L1171.62 895.634L1933 2693.5L1623.5 2952.5L1160.52 897.862L1340.5 2952.5L1046 3057L1149.07 897.782L523 3173L245.5 3193.5L1138.03 895.401L31.5 2775L-129.5 2504.5L1128.16 890.883L-202 2046.5L-183 1832.5L1120.13 884.534L-68 1475.08V1352.29L1114.48 876.787L-68 1168.48L-68 1069.19L1111.61 868.171L-68 910.132L-68 817.305L1112.08 859.285L-68 656.768L-68 557.394L1114.8 850.65L-68 373.301L-68 250.279L1120.62 842.987L-18.0781 33.8833L90.0129 -49.8613L1128.81 836.757L298.425 -173.659L305.9 -177H467.844L1138.79 832.384L727.669 -177L866.899 -177L1149.88 830.163L1091.93 -177H1222.16Z" fill="white" fill-opacity="0.07"/>
</svg>
